<?xml version="1.0" encoding="UTF-8"?>
<svg id="b" data-name="Layer 2" xmlns="http://www.w3.org/2000/svg" width="200" height="200" viewBox="0 0 200 200">
  <g id="c" data-name="Layer 1">
    <g>
      <polygon points="0 0 0 50 50 25 0 0"/>
      <polygon points="100 50 100 0 50 25 100 50"/>
      <polygon points="100 100 100 50 50 75 100 100"/>
      <polygon points="0 50 0 100 50 75 0 50"/>
      <polygon points="200 0 150 0 175 50 200 0"/>
      <polygon points="150 100 200 100 175 50 150 100"/>
      <polygon points="100 100 150 100 125 50 100 100"/>
      <polygon points="150 0 100 0 125 50 150 0"/>
      <polygon points="200 200 200 150 150 175 200 200"/>
      <polygon points="100 150 100 200 150 175 100 150"/>
      <polygon points="100 100 100 150 150 125 100 100"/>
      <polygon points="200 150 200 100 150 125 200 150"/>
      <polygon points="0 200 50 200 25 150 0 200"/>
      <polygon points="50 100 0 100 25 150 50 100"/>
      <polygon points="100 100 50 100 75 150 100 100"/>
      <polygon points="50 200 100 200 75 150 50 200"/>
    </g>
  </g>
</svg>