<?xml version="1.0" encoding="UTF-8"?>
<svg id="b" data-name="Layer 2" xmlns="http://www.w3.org/2000/svg" width="200" height="200" viewBox="0 0 200 200">
  <g id="c" data-name="Layer 1">
    <g>
      <rect x="60.5" y="140.5" width="19" height="19" fill="none"/>
      <rect x="60.5" y="120.5" width="19" height="19" fill="none"/>
      <rect x="60.5" y="160.5" width="19" height="19" fill="none"/>
      <rect x="60.5" y="180.5" width="19" height="17" fill="none"/>
      <rect x="60.5" y="80.5" width="19" height="17" fill="none"/>
      <rect x="60.5" y="102.5" width="19" height="17" fill="none"/>
      <rect x="40.5" y="80.5" width="19" height="17" fill="none"/>
      <rect x="40.5" y="60.5" width="19" height="19" fill="none"/>
      <rect x="60.5" y="60.5" width="19" height="19" fill="none"/>
      <rect x="40.5" y="40.5" width="19" height="19" fill="none"/>
      <rect x="40.5" y="2.5" width="19" height="17" fill="none"/>
      <rect x="40.5" y="20.5" width="19" height="19" fill="none"/>
      <rect x="80.5" y="2.5" width="17" height="17" fill="none"/>
      <rect x="80.5" y="60.5" width="17" height="19" fill="none"/>
      <rect x="80.5" y="80.5" width="17" height="17" fill="none"/>
      <rect x="60.5" y="40.5" width="19" height="19" fill="none"/>
      <rect x="80.5" y="20.5" width="17" height="19" fill="none"/>
      <rect x="80.5" y="120.5" width="17" height="19" fill="none"/>
      <rect x="80.5" y="40.5" width="17" height="19" fill="none"/>
      <rect x="40.5" y="102.5" width="19" height="17" fill="none"/>
      <rect x="60.5" y="20.5" width="19" height="19" fill="none"/>
      <rect x="60.5" y="2.5" width="19" height="17" fill="none"/>
      <rect x="80.5" y="140.5" width="17" height="19" fill="none"/>
      <rect x="80.5" y="160.5" width="17" height="19" fill="none"/>
      <rect x="80.5" y="180.5" width="17" height="17" fill="none"/>
      <rect x="80.5" y="102.5" width="17" height="17" fill="none"/>
      <rect x="2.5" y="60.5" width="17" height="19" fill="none"/>
      <rect x="2.5" y="80.5" width="17" height="17" fill="none"/>
      <rect x="2.5" y="102.5" width="17" height="17" fill="none"/>
      <rect x="2.5" y="40.5" width="17" height="19" fill="none"/>
      <rect x="20.5" y="180.5" width="19" height="17" fill="none"/>
      <rect x="2.5" y="20.5" width="17" height="19" fill="none"/>
      <rect x="2.5" y="2.5" width="17" height="17" fill="none"/>
      <rect x="2.5" y="180.5" width="17" height="17" fill="none"/>
      <rect x="2.5" y="160.5" width="17" height="19" fill="none"/>
      <rect x="2.5" y="120.5" width="17" height="19" fill="none"/>
      <rect x="2.5" y="140.5" width="17" height="19" fill="none"/>
      <rect x="40.5" y="120.5" width="19" height="19" fill="none"/>
      <rect x="20.5" y="2.5" width="19" height="17" fill="none"/>
      <rect x="40.5" y="180.5" width="19" height="17" fill="none"/>
      <rect x="20.5" y="40.5" width="19" height="19" fill="none"/>
      <rect x="20.5" y="20.5" width="19" height="19" fill="none"/>
      <rect x="20.5" y="160.5" width="19" height="19" fill="none"/>
      <rect x="40.5" y="160.5" width="19" height="19" fill="none"/>
      <rect x="40.5" y="140.5" width="19" height="19" fill="none"/>
      <rect x="20.5" y="120.5" width="19" height="19" fill="none"/>
      <rect x="20.5" y="140.5" width="19" height="19" fill="none"/>
      <rect x="20.5" y="80.5" width="19" height="17" fill="none"/>
      <rect x="20.5" y="60.5" width="19" height="19" fill="none"/>
      <rect x="20.5" y="102.5" width="19" height="17" fill="none"/>
      <rect x="160.5" y="180.5" width="19" height="17" fill="none"/>
      <rect x="160.5" y="120.5" width="19" height="19" fill="none"/>
      <rect x="160.5" y="140.5" width="19" height="19" fill="none"/>
      <rect x="160.5" y="102.5" width="19" height="17" fill="none"/>
      <rect x="160.5" y="80.5" width="19" height="17" fill="none"/>
      <rect x="160.5" y="160.5" width="19" height="19" fill="none"/>
      <rect x="160.5" y="60.5" width="19" height="19" fill="none"/>
      <rect x="160.5" y="40.5" width="19" height="19" fill="none"/>
      <rect x="102.5" y="180.5" width="17" height="17" fill="none"/>
      <rect x="140.5" y="60.5" width="19" height="19" fill="none"/>
      <rect x="140.5" y="40.5" width="19" height="19" fill="none"/>
      <rect x="140.5" y="20.5" width="19" height="19" fill="none"/>
      <rect x="140.5" y="2.5" width="19" height="17" fill="none"/>
      <rect x="180.5" y="102.5" width="17" height="17" fill="none"/>
      <rect x="180.5" y="60.5" width="17" height="19" fill="none"/>
      <rect x="180.5" y="80.5" width="17" height="17" fill="none"/>
      <rect x="180.5" y="20.5" width="17" height="19" fill="none"/>
      <rect x="140.5" y="80.5" width="19" height="17" fill="none"/>
      <rect x="180.5" y="2.5" width="17" height="17" fill="none"/>
      <rect x="180.5" y="160.5" width="17" height="19" fill="none"/>
      <rect x="180.5" y="180.5" width="17" height="17" fill="none"/>
      <rect x="160.5" y="2.5" width="19" height="17" fill="none"/>
      <rect x="160.5" y="20.5" width="19" height="19" fill="none"/>
      <rect x="180.5" y="140.5" width="17" height="19" fill="none"/>
      <rect x="180.5" y="120.5" width="17" height="19" fill="none"/>
      <rect x="180.5" y="40.5" width="17" height="19" fill="none"/>
      <rect x="102.5" y="20.5" width="17" height="19" fill="none"/>
      <rect x="102.5" y="2.5" width="17" height="17" fill="none"/>
      <rect x="120.5" y="140.5" width="19" height="19" fill="none"/>
      <rect x="102.5" y="60.5" width="17" height="19" fill="none"/>
      <rect x="120.5" y="160.5" width="19" height="19" fill="none"/>
      <rect x="120.5" y="180.5" width="19" height="17" fill="none"/>
      <rect x="102.5" y="40.5" width="17" height="19" fill="none"/>
      <rect x="102.5" y="140.5" width="17" height="19" fill="none"/>
      <rect x="102.5" y="160.5" width="17" height="19" fill="none"/>
      <rect x="102.5" y="102.5" width="17" height="17" fill="none"/>
      <rect x="102.5" y="120.5" width="17" height="19" fill="none"/>
      <rect x="102.5" y="80.5" width="17" height="17" fill="none"/>
      <rect x="120.5" y="20.5" width="19" height="19" fill="none"/>
      <rect x="120.5" y="2.5" width="19" height="17" fill="none"/>
      <rect x="140.5" y="120.5" width="19" height="19" fill="none"/>
      <rect x="140.5" y="180.5" width="19" height="17" fill="none"/>
      <rect x="140.5" y="140.5" width="19" height="19" fill="none"/>
      <rect x="140.5" y="160.5" width="19" height="19" fill="none"/>
      <rect x="120.5" y="120.5" width="19" height="19" fill="none"/>
      <rect x="120.5" y="102.5" width="19" height="17" fill="none"/>
      <rect x="120.5" y="80.5" width="19" height="17" fill="none"/>
      <rect x="140.5" y="102.5" width="19" height="17" fill="none"/>
      <rect x="120.5" y="40.5" width="19" height="19" fill="none"/>
      <rect x="120.5" y="60.5" width="19" height="19" fill="none"/>
      <path d="m0,0v200h200V0H0Zm19.5,197.5H2.5v-17h17v17Zm0-18H2.5v-19h17v19Zm0-20H2.5v-19h17v19Zm0-20H2.5v-19h17v19Zm0-20H2.5v-17h17v17Zm0-22H2.5v-17h17v17Zm0-18H2.5v-19h17v19Zm0-20H2.5v-19h17v19Zm0-20H2.5v-19h17v19Zm0-20H2.5V2.5h17v17Zm20,178h-19v-17h19v17Zm0-18h-19v-19h19v19Zm0-20h-19v-19h19v19Zm0-20h-19v-19h19v19Zm0-20h-19v-17h19v17Zm0-22h-19v-17h19v17Zm0-18h-19v-19h19v19Zm0-20h-19v-19h19v19Zm0-20h-19v-19h19v19Zm0-20h-19V2.5h19v17Zm20,178h-19v-17h19v17Zm0-18h-19v-19h19v19Zm0-20h-19v-19h19v19Zm0-20h-19v-19h19v19Zm0-20h-19v-17h19v17Zm0-22h-19v-17h19v17Zm0-18h-19v-19h19v19Zm0-20h-19v-19h19v19Zm0-20h-19v-19h19v19Zm0-20h-19V2.5h19v17Zm20,178h-19v-17h19v17Zm0-18h-19v-19h19v19Zm0-20h-19v-19h19v19Zm0-20h-19v-19h19v19Zm0-20h-19v-17h19v17Zm0-22h-19v-17h19v17Zm0-18h-19v-19h19v19Zm0-20h-19v-19h19v19Zm0-20h-19v-19h19v19Zm0-20h-19V2.5h19v17Zm18,178h-17v-17h17v17Zm0-18h-17v-19h17v19Zm0-20h-17v-19h17v19Zm0-20h-17v-19h17v19Zm0-20h-17v-17h17v17Zm0-22h-17v-17h17v17Zm0-18h-17v-19h17v19Zm0-20h-17v-19h17v19Zm0-20h-17v-19h17v19Zm0-20h-17V2.5h17v17Zm22,178h-17v-17h17v17Zm0-18h-17v-19h17v19Zm0-20h-17v-19h17v19Zm0-20h-17v-19h17v19Zm0-20h-17v-17h17v17Zm0-22h-17v-17h17v17Zm0-18h-17v-19h17v19Zm0-20h-17v-19h17v19Zm0-20h-17v-19h17v19Zm0-20h-17V2.5h17v17Zm20,178h-19v-17h19v17Zm0-18h-19v-19h19v19Zm0-20h-19v-19h19v19Zm0-20h-19v-19h19v19Zm0-20h-19v-17h19v17Zm0-22h-19v-17h19v17Zm0-18h-19v-19h19v19Zm0-20h-19v-19h19v19Zm0-20h-19v-19h19v19Zm0-20h-19V2.5h19v17Zm20,178h-19v-17h19v17Zm0-18h-19v-19h19v19Zm0-20h-19v-19h19v19Zm0-20h-19v-19h19v19Zm0-20h-19v-17h19v17Zm0-22h-19v-17h19v17Zm0-18h-19v-19h19v19Zm0-20h-19v-19h19v19Zm0-20h-19v-19h19v19Zm0-20h-19V2.5h19v17Zm20,178h-19v-17h19v17Zm0-18h-19v-19h19v19Zm0-20h-19v-19h19v19Zm0-20h-19v-19h19v19Zm0-20h-19v-17h19v17Zm0-22h-19v-17h19v17Zm0-18h-19v-19h19v19Zm0-20h-19v-19h19v19Zm0-20h-19v-19h19v19Zm0-20h-19V2.5h19v17Zm18,178h-17v-17h17v17Zm0-18h-17v-19h17v19Zm0-20h-17v-19h17v19Zm0-20h-17v-19h17v19Zm0-20h-17v-17h17v17Zm0-22h-17v-17h17v17Zm0-18h-17v-19h17v19Zm0-20h-17v-19h17v19Zm0-20h-17v-19h17v19Zm0-20h-17V2.5h17v17Z"/>
    </g>
  </g>
</svg>