<?xml version="1.0" encoding="UTF-8"?>
<svg id="b" data-name="Layer 2" xmlns="http://www.w3.org/2000/svg" width="200" height="200" viewBox="0 0 200 200">
  <g id="c" data-name="Layer 1">
    <g>
      <path d="m100,0C44.772,0,0,44.771,0,100s44.772,100,100,100,100-44.771,100-100S155.228,0,100,0Zm70,170H30V30h140v140Z"/>
      <g>
        <path d="m100,170c19.33,0,36.83-7.835,49.497-20.502H50.503c12.667,12.667,30.167,20.502,49.497,20.502Z"/>
        <path d="m50.503,50.502c-12.667,12.667-20.503,30.167-20.503,49.498s7.835,36.83,20.503,49.497V50.502Z"/>
        <path d="m149.497,50.502v98.995c12.667-12.667,20.503-30.167,20.503-49.498s-7.835-36.83-20.503-49.498Z"/>
        <path d="m50.503,50.502h98.995c-12.668-12.667-30.168-20.502-49.497-20.502s-36.83,7.835-49.497,20.502Z"/>
      </g>
      <g>
        <path d="m65,135c8.957,8.957,21.332,14.498,35,14.498s26.043-5.54,35-14.498h-70Z"/>
        <path d="m65,135v-70c-8.957,8.957-14.497,21.332-14.497,35s5.54,26.043,14.497,35Z"/>
        <path d="m149.497,100c0-13.668-5.54-26.043-14.497-35v70c8.957-8.957,14.497-21.332,14.497-35Z"/>
        <path d="m65,65h70c-8.957-8.957-21.332-14.498-35-14.498s-26.043,5.54-35,14.498Z"/>
      </g>
      <g>
        <path d="m124.749,75.251c-6.334-6.334-15.084-10.251-24.749-10.251s-18.415,3.917-24.749,10.251h49.497Z"/>
        <path d="m100,135c9.665,0,18.415-3.917,24.749-10.251h-49.497c6.334,6.334,15.084,10.251,24.749,10.251Z"/>
        <path d="m124.749,75.251v49.498c6.334-6.334,10.251-15.084,10.251-24.749s-3.918-18.415-10.251-24.749Z"/>
        <path d="m65,100c0,9.665,3.918,18.415,10.251,24.749v-49.498c-6.334,6.334-10.251,15.084-10.251,24.749Z"/>
      </g>
      <g>
        <path d="m100,75.251c-6.834,0-13.021,2.77-17.5,7.249h35c-4.479-4.479-10.666-7.249-17.5-7.249Z"/>
        <path d="m100,124.749c6.834,0,13.021-2.77,17.5-7.249h-35c4.479,4.479,10.666,7.249,17.5,7.249Z"/>
        <path d="m75.251,100c0,6.834,2.77,13.021,7.249,17.5v-35c-4.479,4.479-7.249,10.666-7.249,17.5Z"/>
        <path d="m117.5,82.5v35c4.479-4.479,7.249-10.666,7.249-17.5s-2.77-13.021-7.249-17.5Z"/>
      </g>
      <g>
        <path d="m100,82.5c-4.832,0-9.208,1.959-12.374,5.125h24.749c-3.167-3.167-7.542-5.125-12.374-5.125Z"/>
        <path d="m112.374,87.625v24.749h-24.749v-24.749c-3.167,3.167-5.126,7.542-5.126,12.375,0,9.665,7.835,17.5,17.5,17.5s17.5-7.835,17.5-17.5c0-4.833-1.959-9.208-5.126-12.375Z"/>
      </g>
      <g>
        <path d="m100,87.625c-3.417,0-6.511,1.385-8.75,3.625h17.5c-2.239-2.239-5.333-3.625-8.75-3.625Z"/>
        <path d="m87.626,100c0,3.417,1.385,6.511,3.624,8.75v-17.5c-2.239,2.239-3.624,5.333-3.624,8.75Z"/>
        <path d="m100,112.374c3.417,0,6.511-1.385,8.75-3.624h-17.5c2.239,2.239,5.333,3.624,8.75,3.624Z"/>
        <path d="m108.75,91.25v17.5c2.239-2.239,3.624-5.333,3.624-8.75s-1.385-6.511-3.624-8.75Z"/>
      </g>
      <g>
        <path d="m91.25,100c0,2.416.979,4.604,2.563,6.187v-12.375c-1.583,1.583-2.563,3.771-2.563,6.187Z"/>
        <path d="m100,91.25c-2.416,0-4.604.979-6.187,2.563h12.374c-1.583-1.583-3.771-2.563-6.187-2.563Z"/>
        <path d="m100,108.75c2.416,0,4.604-.979,6.187-2.563h-12.374c1.583,1.583,3.771,2.563,6.187,2.563Z"/>
        <path d="m106.187,93.813v12.375c1.583-1.583,2.563-3.771,2.563-6.187s-.979-4.604-2.563-6.187Z"/>
      </g>
      <g>
        <path d="m93.813,100c0,1.708.693,3.255,1.812,4.375v-8.75c-1.12,1.12-1.812,2.667-1.812,4.375Z"/>
        <path d="m100,93.813c-1.709,0-3.255.693-4.375,1.812h8.75c-1.12-1.12-2.666-1.812-4.375-1.812Z"/>
        <path d="m100,106.187c1.709,0,3.255-.693,4.375-1.812h-8.75c1.12,1.12,2.666,1.812,4.375,1.812Z"/>
        <path d="m104.375,95.625v8.75c1.12-1.12,1.812-2.667,1.812-4.375s-.693-3.255-1.812-4.375Z"/>
      </g>
      <g>
        <path d="m95.625,100c0,1.208.49,2.302,1.281,3.094v-6.187c-.792.792-1.281,1.886-1.281,3.094Z"/>
        <path d="m100,95.625c-1.208,0-2.302.49-3.094,1.281h6.187v6.187h-6.187c.792.792,1.885,1.281,3.094,1.281,2.416,0,4.375-1.959,4.375-4.375s-1.959-4.375-4.375-4.375Z"/>
      </g>
      <g>
        <path d="m96.906,100c0,.854.346,1.628.906,2.188v-4.375c-.56.56-.906,1.333-.906,2.188Z"/>
        <path d="m100,103.094c.854,0,1.628-.346,2.188-.906h-4.375c.56.56,1.333.906,2.188.906Z"/>
        <path d="m100,96.906c-.854,0-1.628.346-2.188.906h4.375c-.56-.56-1.333-.906-2.188-.906Z"/>
        <path d="m102.188,97.812v4.375c.56-.56.906-1.333.906-2.188s-.346-1.628-.906-2.188Z"/>
      </g>
      <g>
        <path d="m97.812,100c0,.604.245,1.151.641,1.547v-3.094c-.396.396-.641.943-.641,1.547Z"/>
        <path d="m100,102.187c.604,0,1.151-.245,1.547-.641h-3.094c.396.396.943.641,1.547.641Z"/>
        <path d="m100,97.812c-.604,0-1.151.245-1.547.641h3.094c-.396-.396-.943-.641-1.547-.641Z"/>
        <path d="m101.547,98.453v3.094c.396-.396.641-.943.641-1.547s-.245-1.151-.641-1.547Z"/>
      </g>
      <g>
        <path d="m98.453,100c0,.427.173.814.453,1.094v-2.188c-.28.28-.453.667-.453,1.094Z"/>
        <path d="m100,101.547c.427,0,.814-.173,1.094-.453h-2.188c.28.28.667.453,1.094.453Z"/>
        <path d="m100,98.453c-.427,0-.814.173-1.094.453h2.188c-.28-.28-.667-.453-1.094-.453Z"/>
        <path d="m101.094,98.906v2.188c.28-.28.453-.667.453-1.094s-.173-.814-.453-1.094Z"/>
      </g>
      <g>
        <path d="m98.906,100c0,.302.122.575.32.773v-1.547c-.198.198-.32.471-.32.773Z"/>
        <path d="m100,101.094c.302,0,.575-.122.773-.32h-1.547c.198.198.471.32.773.32Z"/>
        <path d="m100,98.906c-.302,0-.575.122-.773.32h1.547c-.198-.198-.471-.32-.773-.32Z"/>
        <path d="m100.773,99.227v1.547c.198-.198.32-.471.32-.773s-.122-.575-.32-.773Z"/>
      </g>
      <g>
        <path d="m99.227,100c0,.214.087.407.227.547v-1.094c-.14.14-.227.333-.227.547Z"/>
        <path d="m100,100.773c.214,0,.407-.087.547-.227h-1.094c.14.14.333.227.547.227Z"/>
        <path d="m100,99.226c-.214,0-.407.087-.547.227h1.094c-.14-.14-.333-.227-.547-.227Z"/>
        <path d="m100.547,99.453v1.094c.14-.14.227-.333.227-.547s-.087-.407-.227-.547Z"/>
      </g>
    </g>
  </g>
</svg>