<?xml version="1.0" encoding="UTF-8"?>
<svg id="b" data-name="Layer 2" xmlns="http://www.w3.org/2000/svg" width="200" height="200" viewBox="0 0 200 200">
  <g id="c" data-name="Layer 1">
    <g>
      <g>
        <path d="m70,4.581V0h-10v8.329c3.248-1.419,6.583-2.675,10-3.748Z"/>
        <path d="m90,.496v-.496h-10v2.002c3.278-.665,6.614-1.17,10-1.506Z"/>
        <path d="m50,13.381V0h-10v19.996c3.191-2.397,6.529-4.606,10-6.614Z"/>
        <path d="m30,28.595V0h-10v39.994c3.043-4.05,6.389-7.859,10-11.399Z"/>
        <path d="m10,0H0v100c0-15.644,3.595-30.448,10-43.634V0Z"/>
        <path d="m110,0h-10c3.375,0,6.711.17,10,.496v-.496Z"/>
        <path d="m130,4.581V0h-10v2.002c3.399.69,6.735,1.553,10,2.579Z"/>
        <path d="m190,56.366V0h-10v39.994c3.832,5.101,7.187,10.581,10,16.372Z"/>
        <path d="m170,28.595V0h-10v19.996c3.522,2.646,6.86,5.521,10,8.6Z"/>
        <path d="m150,13.381V0h-10v8.329c3.438,1.502,6.777,3.188,10,5.052Z"/>
        <path d="m180,160.006v39.994h10v-56.366c-2.813,5.792-6.168,11.271-10,16.372Z"/>
        <path d="m120,197.998v2.002h10v-4.581c-3.265,1.025-6.601,1.889-10,2.579Z"/>
        <path d="m140,191.671v8.329h10v-13.381c-3.223,1.865-6.562,3.55-10,5.052Z"/>
        <path d="m0,100v100h10v-56.366C3.595,130.448,0,115.644,0,100Z"/>
        <path d="m160,180.004v19.996h10v-28.595c-3.14,3.078-6.478,5.954-10,8.6Z"/>
        <path d="m100,200h10v-.496c-3.289.327-6.625.496-10,.496Z"/>
        <path d="m80,197.998v2.002h10v-.496c-3.386-.336-6.722-.841-10-1.506Z"/>
        <path d="m20,160.006v39.994h10v-28.595c-3.611-3.54-6.957-7.348-10-11.399Z"/>
        <path d="m40,180.004v19.996h10v-13.381c-3.471-2.008-6.809-4.218-10-6.614Z"/>
        <path d="m60,191.671v8.329h10v-4.581c-3.417-1.073-6.752-2.329-10-3.748Z"/>
      </g>
      <g>
        <rect x="90" y="40" width="10" height="120" fill="none"/>
        <rect x="110" y="40" width="10" height="120" fill="none"/>
        <rect x="70" y="40" width="10" height="120" fill="none"/>
        <rect x="50" y="40" width="10" height="120" fill="none"/>
        <rect x="150" y="40" width="10" height="120" fill="none"/>
        <rect x="130" y="40" width="10" height="120" fill="none"/>
        <rect x="140" y="40" width="10" height="120"/>
        <rect x="40" y="40" width="10" height="120"/>
        <rect x="60" y="40" width="10" height="120"/>
        <rect x="120" y="40" width="10" height="120"/>
        <rect x="100" y="40" width="10" height="120"/>
        <rect x="80" y="40" width="10" height="120"/>
      </g>
      <g>
        <path d="m40,40h-20.004c-2.397,3.191-4.606,6.53-6.614,10h26.619v-10Z"/>
        <path d="m40,60H8.329c-1.419,3.248-2.675,6.583-3.748,10h35.419v-10Z"/>
        <path d="m160.006,20H39.994c-4.05,3.043-7.859,6.389-11.399,10h142.809c-3.54-3.611-7.349-6.957-11.399-10Z"/>
        <path d="m160,90h39.504c-.336-3.386-.841-6.722-1.506-10h-37.998v10Z"/>
        <path d="m40,80H2.002c-.665,3.278-1.17,6.614-1.506,10h39.504v-10Z"/>
        <path d="m160,70h35.419c-1.073-3.417-2.329-6.752-3.748-10h-31.671v10Z"/>
        <path d="m100,0c-15.644,0-30.448,3.595-43.634,10h87.268C130.448,3.595,115.644,0,100,0Z"/>
        <path d="m160,50h26.619c-2.008-3.47-4.218-6.809-6.614-10h-20.004v10Z"/>
        <path d="m40,120H2.002c.69,3.399,1.553,6.735,2.579,10h35.419v-10Z"/>
        <path d="m160,130h35.419c1.025-3.265,1.889-6.601,2.579-10h-37.998v10Z"/>
        <path d="m40,100H0c0,3.375.17,6.711.496,10h39.504v-10Z"/>
        <path d="m160,150h26.619c1.865-3.223,3.55-6.562,5.052-10h-31.671v10Z"/>
        <path d="m160,100v10h39.504c.327-3.289.496-6.625.496-10h-40Z"/>
        <path d="m40,140H8.329c1.502,3.438,3.188,6.777,5.052,10h26.619v-10Z"/>
        <path d="m56.366,190h87.268c5.792-2.813,11.271-6.168,16.372-10H39.994c5.101,3.832,10.581,7.187,16.372,10Z"/>
        <path d="m40,160h-20.004c2.646,3.522,5.521,6.86,8.6,10h142.809c3.078-3.14,5.954-6.478,8.6-10H40Z"/>
      </g>
    </g>
  </g>
</svg>