<?xml version="1.0" encoding="UTF-8"?>
<svg id="b" data-name="Layer 2" xmlns="http://www.w3.org/2000/svg" width="200" height="200" viewBox="0 0 200 200">
  <g id="c" data-name="Layer 1">
    <g>
      <circle cx="100" cy="100" r="10"/>
      <path d="m100,190c-5.523,0-10,4.477-10,10h20c0-5.523-4.477-10-10-10Z"/>
      <path d="m200,190c-5.523,0-10,4.477-10,10h10v-10Z"/>
      <circle cx="50" cy="150" r="10"/>
      <circle cx="150" cy="150" r="10"/>
      <circle cx="50" cy="50" r="10"/>
      <circle cx="150" cy="50" r="10"/>
      <path d="m100,10c5.523,0,10-4.477,10-10h-20c0,5.523,4.477,10,10,10Z"/>
      <path d="m200,10V0h-10c0,5.523,4.477,10,10,10Z"/>
      <path d="m0,10c5.523,0,10-4.477,10-10H0v10Z"/>
      <path d="m0,190v10h10c0-5.523-4.477-10-10-10Z"/>
      <path d="m190,100c0,5.523,4.477,10,10,10v-20c-5.523,0-10,4.477-10,10Z"/>
      <path d="m10,100c0-5.523-4.477-10-10-10v20c5.523,0,10-4.477,10-10Z"/>
      <circle cx="50" cy="100" r="20"/>
      <circle cx="150" cy="100" r="20"/>
      <path d="m150,20c11.046,0,20-8.954,20-20h-40c0,11.046,8.954,20,20,20Z"/>
      <circle cx="100" cy="50" r="20"/>
      <circle cx="100" cy="150" r="20"/>
      <path d="m0,30v40c11.046,0,20-8.954,20-20S11.046,30,0,30Z"/>
      <path d="m20,150c0-11.046-8.954-20-20-20v40c11.046,0,20-8.954,20-20Z"/>
      <path d="m180,50c0,11.046,8.954,20,20,20V30c-11.046,0-20,8.954-20,20Z"/>
      <path d="m180,150c0,11.046,8.954,20,20,20v-40c-11.046,0-20,8.954-20,20Z"/>
      <path d="m150,180c-11.046,0-20,8.954-20,20h40c0-11.046-8.954-20-20-20Z"/>
      <path d="m50,20c11.046,0,20-8.954,20-20H30c0,11.046,8.954,20,20,20Z"/>
      <path d="m50,180c-11.046,0-20,8.954-20,20h40c0-11.046-8.954-20-20-20Z"/>
    </g>
  </g>
</svg>